<svg width="20" height="20" viewBox="0 0 20 20" fill="none" xmlns="http://www.w3.org/2000/svg">
<path d="M19.8509 19.1275L12.7643 12.019C13.8517 10.7535 14.5134 9.09418 14.5134 7.27916C14.5134 3.25875 11.264 0 7.2567 0C3.24938 0 0 3.25944 0 7.27916C0 11.2996 3.24938 14.5583 7.2567 14.5583C7.26755 14.5583 7.2784 14.5583 7.28924 14.5583H7.28789C9.1163 14.5508 10.7834 13.8633 12.0518 12.7351L12.0443 12.7419L19.1309 19.8504C19.2231 19.9429 19.3505 20 19.4909 20C19.7722 20 20 19.7715 20 19.4893C20 19.3485 19.9431 19.22 19.8509 19.1275ZM1.01691 7.24787C1.01691 3.77355 3.82428 0.957497 7.28789 0.957497C10.7515 0.957497 13.5589 3.77355 13.5589 7.24787C13.5589 10.7222 10.7515 13.5383 7.28789 13.5383C3.82631 13.5342 1.02098 10.7202 1.01691 7.24855V7.24787Z" fill="#B9B9B9"/>
</svg>
