<svg width="20" height="20" viewBox="0 0 20 20" fill="none" xmlns="http://www.w3.org/2000/svg">
<path d="M0.266172 10.6324C0.0957422 10.4646 0 10.2372 0 10C0 9.76283 0.0957422 9.53537 0.266172 9.36764L5.72077 4.00108C5.89223 3.83815 6.12187 3.748 6.36023 3.75003C6.5986 3.75207 6.82661 3.84614 6.99516 4.01197C7.16372 4.17781 7.25933 4.40214 7.2614 4.63666C7.26347 4.87117 7.17184 5.09711 7.00624 5.2658L3.10347 9.10557H19.0909C19.332 9.10557 19.5632 9.19981 19.7337 9.36754C19.9042 9.53528 20 9.76278 20 10C20 10.2372 19.9042 10.4647 19.7337 10.6325C19.5632 10.8002 19.332 10.8944 19.0909 10.8944H3.10347L7.00624 14.7342C7.17184 14.9029 7.26347 15.1288 7.2614 15.3633C7.25933 15.5979 7.16372 15.8222 6.99516 15.988C6.82661 16.1539 6.5986 16.2479 6.36023 16.25C6.12187 16.252 5.89223 16.1619 5.72077 15.9989L0.266172 10.6324Z" fill="black"/>
</svg>
