<svg width="32" height="32" viewBox="0 0 32 32" fill="none" xmlns="http://www.w3.org/2000/svg">
<path d="M8.65514 2.82364C7.63837 4.89021 7.10057 7.17343 7.10057 9.52044C7.10057 17.9179 13.9142 24.7495 22.2897 24.7495C24.753 24.7495 27.1334 24.161 29.2666 23.0501C26.6857 27.7068 21.7663 30.717 16.2275 30.717C7.98529 30.717 1.28086 23.9949 1.28086 15.731C1.28086 10.3256 4.17271 5.46071 8.65514 2.82364ZM12.146 0.00120351C5.16307 1.81743 0 8.16158 0 15.731C0 24.7158 7.26623 32 16.2275 32C23.8947 32 30.3038 26.6621 32 19.4958C29.4947 21.95 26.071 23.4653 22.2909 23.4653C14.6093 23.4653 8.38144 17.221 8.38144 9.51924C8.38144 5.83503 9.81716 2.49265 12.1472 0L12.146 0.00120351Z" fill="black"/>
</svg>
